{
  "title": "Johnny English Reborn (2011) DVDRip XviD-MAX",
  "uid": 6945349,
  "size": 1573396103,
  "categoryP": "video",
  "categoryS": "movies",
  "magnet": "?xt=urn:btih:58c549640bf5db8068fd0b44113363f9f2ebdd66&amp;dn=Johnny+English+Reborn+%282011%29+DVDRip+XviD-MAX&amp;tr=udp%3A%2F%2Ftracker.openbittorrent.com%3A80&amp;tr=udp%3A%2F%2Fopen.demonii.com%3A1337&amp;tr=udp%3A%2F%2Ftracker.coppersurfer.tk%3A6969&amp;tr=udp%3A%2F%2Fexodus.desync.com%3A6969",
  "seeders": 49,
  "leechers": 3,
  "uploader": "extremezone",
  "files": -1,
  "time": 1326202299,
  "description": " &lt;a href=&quot;http://www.hotimg.com/direct/TadhrUd.jpg&quot; rel=&quot;nofollow&quot; target=&quot;_NEW&quot;&gt;http://www.hotimg.com/direct/TadhrUd.jpg&lt;/a&gt;\n\nScreens:\n &lt;a href=&quot;\nhttp://www.hotimg.com/direct/pdFfuwK.jpg&quot; rel=&quot;nofollow&quot; target=&quot;_NEW&quot;&gt;\nhttp://www.hotimg.com/direct/pdFfuwK.jpg&lt;/a&gt;\n &lt;a href=&quot;\nhttp://www.hotimg.com/direct/QunGNyx.jpg&quot; rel=&quot;nofollow&quot; target=&quot;_NEW&quot;&gt;\nhttp://www.hotimg.com/direct/QunGNyx.jpg&lt;/a&gt;\n &lt;a href=&quot;\nhttp://www.hotimg.com/direct/vr4JChy.jpg&quot; rel=&quot;nofollow&quot; target=&quot;_NEW&quot;&gt;\nhttp://www.hotimg.com/direct/vr4JChy.jpg&lt;/a&gt;\n &lt;a href=&quot;\nhttp://www.hotimg.com/direct/ExnWwY3.jpg&quot; rel=&quot;nofollow&quot; target=&quot;_NEW&quot;&gt;\nhttp://www.hotimg.com/direct/ExnWwY3.jpg&lt;/a&gt;\n\nAlternative:\n &lt;a href=&quot;\nhttp://www.postimg.com/image/58000/photo-57090.jpg&quot; rel=&quot;nofollow&quot; target=&quot;_NEW&quot;&gt;\nhttp://www.postimg.com/image/58000/photo-57090.jpg&lt;/a&gt;\n &lt;a href=&quot;\nhttp://www.postimg.com/image/58000/photo-57091.jpg&quot; rel=&quot;nofollow&quot; target=&quot;_NEW&quot;&gt;\nhttp://www.postimg.com/image/58000/photo-57091.jpg&lt;/a&gt;\n &lt;a href=&quot;\nhttp://www.postimg.com/image/58000/photo-57092.jpg&quot; rel=&quot;nofollow&quot; target=&quot;_NEW&quot;&gt;\nhttp://www.postimg.com/image/58000/photo-57092.jpg&lt;/a&gt;\n &lt;a href=&quot;\nhttp://www.postimg.com/image/58000/photo-57093.jpg&quot; rel=&quot;nofollow&quot; target=&quot;_NEW&quot;&gt;\nhttp://www.postimg.com/image/58000/photo-57093.jpg&lt;/a&gt;\n\nScreenCaps:\n &lt;a href=&quot;\nhttp://www.postimg.com/image/58000/photo-57097.jpg&quot; rel=&quot;nofollow&quot; target=&quot;_NEW&quot;&gt;\nhttp://www.postimg.com/image/58000/photo-57097.jpg&lt;/a&gt;\n\nJohnny English Reborn (2011) DVDRip XviD-MAX\nFormat/Info                      : Audio Video Interleave\nFormat profile                   : OpenDML\nFile size                        : 1.45 GiB\nDuration                         : 1h 37mn\nOverall bit rate                 : 2 134 Kbps\nWriting application              : VirtualDubMod 1.5.10.2 (build 2542/release)\nWriting library                  : VirtualDubMod build 2542/release\nOriginal source form             : MAX TORRENTZ\nCopyright                        : SIGISMUNT\n\nVideo\nID                               : 0\nFormat                           : MPEG-4 Visual\nFormat profile                   : AdvancedSimple@L5\nFormat settings, BVOP            : Yes\nFormat settings, QPel            : No\nFormat settings, GMC             : No warppoints\nFormat settings, Matrix          : Custom\nCodec ID                         : DIVX\nCodec ID/Info                    : Project Mayo\nCodec ID/Hint                    : DivX 4\nDuration                         : 1h 37mn\nBit rate                         : 1 745 Kbps\nWidth                            : 720 pixels\nHeight                           : 304 pixels\nDisplay aspect ratio             : 2.35:1\nFrame rate                       : 25.000 fps\nResolution                       : 24 bits\nColorimetry                      : 4:2:0\nScan type                        : Progressive\nBits/(Pixel*Frame)               : 0.319\nStream size                      : 1.19 GiB (82%)\nWriting library                  : XviD 1.2.1 (UTC 2008-12-04)\n\nAudio\nID                               : 1\nFormat                           : AC-3\nFormat/Info                      : Audio Coding 3\nCodec ID                         : 2000\nDuration                         : 1h 37mn\nBit rate mode                    : Constant\nBit rate                         : 384 Kbps\nChannel(s)                       : 6 channels\nChannel positions                : Front: L C R, Surround: L R, LFE\nSampling rate                    : 44.1 KHz\nStream size                      : 267 MiB (18%)\nAlignment                        : Aligned on interleaves\nInterleave, duration             : 70 ms (1.74 video frames)\nInterleave, preload duration     : 208 ms\n &lt;a href=&quot;\nhttp://www.imdb.com/title/tt1634122/&quot; rel=&quot;nofollow&quot; target=&quot;_NEW&quot;&gt;\nhttp://www.imdb.com/title/tt1634122/&lt;/a&gt;\n\nSource: DVD (perfect a/v/sync quality,sample included)\nThis torrent is not seedbox supported,please seed it to the MAX\n\nUploader Note: Make sure you will watch it with vlc-perfect play/in other\nstupid players it may have some jerky movement scenes as the source file was\nthe same,enjoy it\n\nNote:If you have something to offer as early releases,seedboxes,links,accounts,etc\nplease contact us on piratepedia[@]msn/gmail.com or our website torentz 3xforum ro\n\nJohnny English Reborn (2011) DVDRip XviD-MAX Torrent Free Download\n &lt;a href=&quot;\nhttp://thepiratebay.se/user/extremezone/0/7&quot; rel=&quot;nofollow&quot; target=&quot;_NEW&quot;&gt;\nhttp://thepiratebay.se/user/extremezone/0/7&lt;/a&gt;\n\nHow To Get Your Maxspeed (uTorrent)\n\nTorrent Client - Preferences - Bandwidth - Number of connections - Set aprox. 500 for each \nTorrent Client - Preferences - BiTorrent - Protocol Encryption - Forced\nBandwidth Allocation - High (Set download/upload limit - Unlimited)\nStop Other Active Torrents - Start downloading and wait for connections.\nEnjoy and Seed for at least 1:1 ratio. Don't forget to say thanks/leave reviews.\nBefore downloading you should check/google search sample &quot;release name&quot;&quot;sample&quot;.\nGreets to all actual/future p2p/scene QUALITY groups and affiliate websites.\nDon't trust IMDb robot or bad ratings,always watch some trailers first.\nIgnore stupid comments/fake/mislabeled/no-DVDrips/CAM/TS/RAR uploads.\nPlease spread this release/torrent to your friends/forums/etc.\nIf you need translation subs visit some subtitles sites.\nReport if you see online streaming or other spam links.\nRecommended movie player VLC PLAYER.",
  "parsed": {
    "xt": "urn:btih:58c549640bf5db8068fd0b44113363f9f2ebdd66",
    "dn": "Johnny English Reborn (2011) DVDRip XviD-MAX",
    "tr": [
      "udp://exodus.desync.com:6969",
      "udp://open.demonii.com:1337",
      "udp://tracker.coppersurfer.tk:6969",
      "udp://tracker.openbittorrent.com:80"
    ],
    "infoHash": "58c549640bf5db8068fd0b44113363f9f2ebdd66",
    "infoHashBuffer": {
      "type": "Buffer",
      "data": [
        88,
        197,
        73,
        100,
        11,
        245,
        219,
        128,
        104,
        253,
        11,
        68,
        17,
        51,
        99,
        249,
        242,
        235,
        221,
        102
      ]
    },
    "name": "Johnny English Reborn (2011) DVDRip XviD-MAX",
    "announce": [
      "udp://exodus.desync.com:6969",
      "udp://open.demonii.com:1337",
      "udp://tracker.coppersurfer.tk:6969",
      "udp://tracker.openbittorrent.com:80"
    ],
    "urlList": []
  },
  "previous": 3,
  "peers": 85,
  "last_updated": "2016-12-27T00:58:44.368Z"
}